<?xml version="1.0" encoding="UTF-8"?>
<svg version="1.1" xmlns="http://www.w3.org/2000/svg" width="297" height="339">
<path d="M0 0 C0.82242188 0.11601562 1.64484375 0.23203125 2.4921875 0.3515625 C6.36069248 1.06259613 10.17642445 1.8874414 14 2.8125 C14 3.4725 14 4.1325 14 4.8125 C14.55071167 4.92741791 15.10142334 5.04233582 15.66882324 5.16073608 C21.04659024 6.31463491 26.28213654 7.71486254 31.53125 9.3515625 C32.31644012 9.59339264 33.10163025 9.83522278 33.91061401 10.0843811 C36.44155677 10.86509675 38.97082419 11.65108094 41.5 12.4375 C43.26248483 12.98290165 45.02501777 13.52814781 46.78759766 14.07324219 C62.54238896 18.95287612 78.25646323 23.95428475 93.93359375 29.078125 C95.08359863 29.45163086 96.23360352 29.82513672 97.41845703 30.20996094 C99.62550905 30.92691152 101.83101045 31.64865938 104.03466797 32.37597656 C105.01967285 32.6953418 106.00467773 33.01470703 107.01953125 33.34375 C108.32047729 33.77010742 108.32047729 33.77010742 109.64770508 34.20507812 C112.2405839 34.9791826 112.2405839 34.9791826 116 34.8125 C116 35.4725 116 36.1325 116 36.8125 C117.2478125 37.06902344 118.495625 37.32554688 119.78125 37.58984375 C125.46288569 38.85329526 130.96402905 40.5897966 136.5 42.375 C137.5003125 42.69146484 138.500625 43.00792969 139.53125 43.33398438 C146.86953671 45.68203671 146.86953671 45.68203671 148 46.8125 C148.10246045 48.3824224 148.13519712 49.95694352 148.14044189 51.53019714 C148.14615204 52.55154755 148.15186218 53.57289795 148.15774536 54.62519836 C148.15886322 55.75588242 148.15998108 56.88656647 148.16113281 58.05151367 C148.16609772 59.23551758 148.17106262 60.41952148 148.17617798 61.6394043 C148.18832402 64.90312066 148.19575821 68.1668011 148.20018864 71.43053603 C148.20312173 73.47818702 148.20722767 75.52583243 148.21169281 77.57348061 C148.22539727 84.00317935 148.23504132 90.43286528 148.2388947 96.86257762 C148.24333972 104.23722535 148.26070686 111.61168442 148.2898953 118.9862749 C148.31174007 124.70888826 148.32161144 130.43144957 148.32293582 136.15410405 C148.32397063 139.55864765 148.32958445 142.96301473 148.34775543 146.36751366 C148.50605444 181.2589819 143.24803695 213.00196534 126.92871094 244.04052734 C126.10663758 245.60903639 125.30561767 247.18854037 124.5078125 248.76953125 C112.79637041 271.36533619 93.92034328 291.25750241 74 306.8125 C73.03964844 307.58980469 72.07929688 308.36710937 71.08984375 309.16796875 C37.09370886 336.20155768 37.09370886 336.20155768 24 335.8125 C20.95530963 315.89963759 18.353318 295.96583031 16.1875 275.9375 C16.07677155 274.92065125 15.96604309 273.90380249 15.85195923 272.85614014 C15.53673245 269.94876458 15.22616935 267.04094054 14.91796875 264.1328125 C14.77770767 262.82869415 14.77770767 262.82869415 14.63461304 261.49822998 C14.5504715 260.68944397 14.46632996 259.88065796 14.37963867 259.04736328 C14.30589523 258.34684845 14.23215179 257.64633362 14.15617371 256.92459106 C13.9813131 254.55977856 14 252.18376852 14 249.8125 C5.75 249.8125 -2.5 249.8125 -11 249.8125 C-11.58007812 255.26330078 -11.58007812 255.26330078 -12.171875 260.82421875 C-16.99108123 305.87778854 -16.99108123 305.87778854 -19.25 322.5 C-19.40049805 323.6346167 -19.55099609 324.7692334 -19.70605469 325.93823242 C-19.92116699 327.45960815 -19.92116699 327.45960815 -20.140625 329.01171875 C-20.25954102 329.85565186 -20.37845703 330.69958496 -20.50097656 331.5690918 C-21.02005884 333.90267648 -21.84095123 335.73033886 -23 337.8125 C-42.06990466 329.3781536 -59.46491307 318.95672361 -75.9453125 306.17578125 C-77.91289948 304.65354324 -79.93011587 303.19242275 -82 301.8125 C-82.33 302.8025 -82.66 303.7925 -83 304.8125 C-83.20496094 303.93980469 -83.40992187 303.06710937 -83.62109375 302.16796875 C-85.34516069 297.97257639 -87.64532958 295.98263375 -91.0625 293.125 C-96.88006757 288.1722973 -96.88006757 288.1722973 -98 284.8125 C-98.66 284.8125 -99.32 284.8125 -100 284.8125 C-101.43812673 283.24309199 -102.8003005 281.60375965 -104.125 279.9375 C-104.93453125 278.92042969 -105.7440625 277.90335937 -106.578125 276.85546875 C-107.37734375 275.85128906 -108.1765625 274.84710938 -109 273.8125 C-109.65484375 273.04550781 -110.3096875 272.27851563 -110.984375 271.48828125 C-126.85786721 252.69590307 -137.50076833 229.36585133 -144 205.8125 C-144.31582031 204.70390625 -144.63164062 203.5953125 -144.95703125 202.453125 C-148.19317679 190.40127266 -149.3014582 178.36747313 -149.22705078 165.92236328 C-149.22734283 164.61334045 -149.22763489 163.30431763 -149.22793579 161.95562744 C-149.22850241 158.41518995 -149.21686199 154.87489196 -149.20278788 151.33448648 C-149.19016346 147.61629883 -149.18910089 143.8981069 -149.18673706 140.17990112 C-149.18055632 133.16089228 -149.16419234 126.14194681 -149.14403808 119.12296569 C-149.12157213 111.1228022 -149.11065894 103.12263546 -149.10064721 95.12244821 C-149.07982251 78.68576189 -149.04471386 62.24913907 -149 45.8125 C-145.19367666 44.53729899 -141.38657798 43.26442782 -137.5793457 41.99194336 C-135.97881725 41.45568455 -135.97881725 41.45568455 -134.3459549 40.90859222 C-126.05550073 38.13955694 -117.7272813 35.53113803 -109.35437012 33.02453613 C-98.2631203 29.69984793 -87.21436126 26.28755456 -76.25 22.5625 C-61.08463795 17.41074618 -45.77987149 12.70316183 -30.48535156 7.95214844 C-28.95689102 7.4770433 -28.95689102 7.4770433 -27.39755249 6.99234009 C-25.48153895 6.39709153 -23.56523833 5.8027659 -21.64859009 5.20956421 C-16.69411526 3.67153952 -11.76927333 2.07671004 -6.87063599 0.36833191 C-4.45132649 -0.35053024 -2.48938472 -0.36735712 0 0 Z " fill="#0CA64F" transform="translate(149,1.1875)"/>
<path d="M0 0 C4.20629759 0.50126863 5.98996488 1.56785592 8.8125 4.6875 C11.38911229 7.40404068 13.90300726 9.80573533 16.9375 12 C20.01473434 14.23190712 22.93763484 16.57374133 25.8125 19.0625 C26.54082031 19.69285156 27.26914063 20.32320312 28.01953125 20.97265625 C30 23 30 23 31.46875 25.5703125 C33.24600377 28.39034272 34.74211777 29.31846553 37.6875 30.8125 C38.89986328 31.44091797 38.89986328 31.44091797 40.13671875 32.08203125 C40.75160156 32.38496094 41.36648437 32.68789062 42 33 C42 33.66 42 34.32 42 35 C43.65 35.66 45.3 36.32 47 37 C47 37.99 47 38.98 47 40 C44.07544277 41.94970482 42.98616549 42.32562495 39.65625 42.74609375 C38.82222656 42.86146484 37.98820312 42.97683594 37.12890625 43.09570312 C35.3767973 43.32350332 33.62418498 43.54746489 31.87109375 43.76757812 C31.03707031 43.88423828 30.20304687 44.00089844 29.34375 44.12109375 C28.58255859 44.2183374 27.82136719 44.31558105 27.03710938 44.41577148 C24.62781932 45.10673878 23.60432904 46.11287289 22 48 C22.99 47.9175 23.98 47.835 25 47.75 C28.92736995 47.74216094 31.32923004 49.05292379 34.69921875 50.9375 C37.43139881 52.19921982 40.05236646 52.71926558 43 53.3125 C49.09685811 54.73073248 52.98700341 57.19873622 57 62 C58 64 59 66 60 68 C62.22622116 69.91394579 64.51839644 71.4080279 67 73 C66.203125 76.8515625 66.203125 76.8515625 64.375 78.1875 C61.25603179 79.25451544 58.27692444 79.62395949 55 80 C54.28328125 80.10441406 53.5665625 80.20882812 52.828125 80.31640625 C47.59870819 81.02868889 43.21216576 80.8273279 38 80 C36.50068226 79.80712036 35.00067963 79.61948048 33.5 79.4375 C32.345 79.293125 31.19 79.14875 30 79 C30 79.66 30 80.32 30 81 C30.56460938 81.12890625 31.12921875 81.2578125 31.7109375 81.390625 C35.68522178 82.44862559 39.46420793 83.88552633 43 86 C44.1875 88.625 44.1875 88.625 45 91 C46.96766531 91.75679435 48.97975201 92.3974699 51 93 C54.72295519 94.89988497 58.36255709 96.94180277 62 99 C61.45276317 102.37462715 60.9451 104.08235 59 107 C56.375 107.1875 56.375 107.1875 54 107 C56.11774143 111.23548286 57.62968473 112.38988385 62 114 C62.33 114.99 62.66 115.98 63 117 C65.3430809 118.12085312 65.3430809 118.12085312 68 119 C68.61875 119.33 69.2375 119.66 69.875 120 C72.81579982 121.3839058 75.86796491 122.15675978 79 123 C78.69701433 125.80261742 78.43999396 127.52333988 76.5 129.625 C72.83838448 131.63888853 68.98007188 132.76991306 65 134 C64.08347656 134.37640625 63.16695312 134.7528125 62.22265625 135.140625 C58.22811436 136.20583617 54.82617555 135.8052731 50.8125 135.1875 C49.74612305 135.04344727 49.74612305 135.04344727 48.65820312 134.89648438 C45.65224176 134.47514078 42.88513709 133.96171236 40 133 C45.11594423 138.56735107 49.61472758 140.73743785 56.9296875 142.40625 C59.82510214 143.23663307 62.33368511 144.578006 64.9765625 146.00390625 C67.07524477 147.03704134 69.14056444 147.69337615 71.375 148.375 C75 150 75 150 76.1875 152.625 C76.455625 153.73875 76.72375 154.8525 77 156 C78.18605292 158.33162623 79.47672062 160.58454497 80.78125 162.8515625 C81.92685434 164.87105733 82.98079267 166.91439982 84 169 C81.09321641 171.45238984 78.92982173 172.45547774 75.1875 173.0625 C72.18116938 173.58324723 69.53352726 174.15549091 66.625 175.125 C56.42730468 177.58651266 49.11708896 175.75298477 40 171 C38.34105885 170.314335 36.6764094 169.6417739 35 169 C35 168.01 35 167.02 35 166 C33.66598223 166.43540858 32.33283226 166.87347586 31 167.3125 C30.2575 167.55613281 29.515 167.79976562 28.75 168.05078125 C25.14143288 169.296352 21.574424 170.659591 18 172 C18.33 180.58 18.66 189.16 19 198 C21.64 196.35 24.28 194.7 27 193 C26.62875 192.236875 26.2575 191.47375 25.875 190.6875 C25.58625 189.800625 25.2975 188.91375 25 188 C27.31427289 184.52859066 28.80708176 184.13721002 32.7890625 183.2890625 C39.44402381 182.41897922 45.46970255 184.23524352 51 188 C53.1519437 191.22791555 53.20086443 192.28400809 53 196 C49.23774319 198.30843434 45.21920417 198.68940741 40.9375 199.3125 C34.42272227 200.34129576 28.90867802 201.9556613 23.00390625 205.01171875 C21 206 21 206 19 206 C19 210.95 19 215.9 19 221 C18.67 221 18.34 221 18 221 C18 219.35 18 217.7 18 216 C17.27409668 215.98541748 16.54819336 215.97083496 15.80029297 215.95581055 C12.49134268 215.88105141 9.18337048 215.7844821 5.875 215.6875 C4.16183594 215.65366211 4.16183594 215.65366211 2.4140625 215.61914062 C-4.65583072 215.39306846 -9.67329121 214.98912764 -15.1171875 210.09765625 C-15.98730469 209.09025391 -15.98730469 209.09025391 -16.875 208.0625 C-17.47054687 207.39347656 -18.06609375 206.72445312 -18.6796875 206.03515625 C-20 204 -20 204 -20 200 C-14.87160006 198.18024518 -10.82315618 200.1400901 -6 202 C-6.01160156 201.03578125 -6.02320313 200.0715625 -6.03515625 199.078125 C-6.04417969 197.81484375 -6.05320312 196.5515625 -6.0625 195.25 C-6.07410156 193.99703125 -6.08570313 192.7440625 -6.09765625 191.453125 C-6.02021027 188.71463499 -5.82780815 186.58119707 -5 184 C-8.33142278 183.49874717 -8.33142278 183.49874717 -12 184 C-12.639375 184.99 -13.27875 185.98 -13.9375 187 C-14.618125 187.99 -15.29875 188.98 -16 190 C-20.60224131 190.51136015 -24.50180368 190.12454908 -29 189 C-29.226875 189.61875 -29.45375 190.2375 -29.6875 190.875 C-31.44114371 193.71423268 -32.80863187 194.12962687 -36 195 C-39.3125 195.125 -39.3125 195.125 -42 195 C-42.99 193.02 -42.99 193.02 -44 191 C-45.37285156 191.01740234 -45.37285156 191.01740234 -46.7734375 191.03515625 C-47.96195313 191.04417969 -49.15046875 191.05320313 -50.375 191.0625 C-51.55835937 191.07410156 -52.74171875 191.08570313 -53.9609375 191.09765625 C-57 191 -57 191 -59 190 C-58.43867066 186.4628562 -57.30442253 185.00738321 -54.5625 182.75 C-53.94503906 182.22921875 -53.32757813 181.7084375 -52.69140625 181.171875 C-51 180 -51 180 -49 180 C-49.33 178.35 -49.66 176.7 -50 175 C-45.65575667 171.37979722 -42.43805516 168.75205178 -36.6640625 168.734375 C-35.84679687 168.73179687 -35.02953125 168.72921875 -34.1875 168.7265625 C-32.9190625 168.73816406 -32.9190625 168.73816406 -31.625 168.75 C-30.78710938 168.74226562 -29.94921875 168.73453125 -29.0859375 168.7265625 C-24.36692675 168.74140216 -20.37963976 169.0256862 -16 171 C-15.67 171.66 -15.34 172.32 -15 173 C-12.09740189 174.3749149 -10.23861295 175 -7 175 C-6.70957482 171.09007374 -6.42504869 167.17976281 -6.14550781 163.26904297 C-6.00362064 161.30023947 -5.85733651 159.3317544 -5.7109375 157.36328125 C-5.15630035 149.55874418 -4.8683218 141.82387991 -5 134 C-6.1446875 135.175625 -6.1446875 135.175625 -7.3125 136.375 C-10 139 -10 139 -13 141 C-13.46975762 143.06430532 -13.46975762 143.06430532 -13.5 145.375 C-13.74005371 148.19223408 -13.96186976 149.91972582 -15.1875 152.5 C-17.66384592 154.54938973 -19.84961526 154.7199658 -23 155 C-23.33 154.01 -23.66 153.02 -24 152 C-26.07291923 152.82856069 -28.13303602 153.68918179 -30.1875 154.5625 C-31.33605469 155.03816406 -32.48460937 155.51382813 -33.66796875 156.00390625 C-36.90570352 157.94351055 -37.56559602 158.63135073 -39.37890625 161.66796875 C-40.7873339 163.82507937 -41.46217758 164.82018116 -43.9284668 165.64477539 C-46.24268838 165.87249293 -48.42777887 165.86818468 -50.75 165.75 C-51.55042725 165.72768311 -52.35085449 165.70536621 -53.17553711 165.68237305 C-59.02179658 165.38068821 -64.87413027 164.5530715 -69 160 C-69.71484375 157.32421875 -69.71484375 157.32421875 -70 155 C-69.175 154.38125 -68.35 153.7625 -67.5 153.125 C-66.675 152.42375 -65.85 151.7225 -65 151 C-65 150.34 -65 149.68 -65 149 C-67.31 148.01 -69.62 147.02 -72 146 C-72 144.68 -72 143.36 -72 142 C-72.99 141.67 -73.98 141.34 -75 141 C-72.82395346 136.6184012 -70.85776469 135.1144134 -66.4375 133.125 C-63.46605597 131.70420775 -63.46605597 131.70420775 -61 130 C-60.67 128.783125 -60.34 127.56625 -60 126.3125 C-59.67 125.219375 -59.34 124.12625 -59 123 C-55.47590227 121.35253076 -51.80853317 120.70565464 -48 120 C-42.57090242 119.27887419 -42.57090242 119.27887419 -38 117 C-37.80979364 115.58369416 -37.62282984 114.1669522 -37.4375 112.75 C-36.83427442 109.74812154 -36.50685847 108.40631599 -34.08984375 106.46875 C-32.63991361 105.67090484 -31.18040639 104.8901654 -29.7109375 104.12890625 C-29.14632812 103.75636719 -28.58171875 103.38382812 -28 103 C-27.32845316 100.28341743 -27.32845316 100.28341743 -28 98 C-30.49361571 99.20381448 -32.68143083 100.45428722 -35 102 C-37.61310436 102.20100803 -39.57067678 102.14310774 -42.0625 101.3125 C-42.701875 101.209375 -43.34125 101.10625 -44 101 C-44.5775 101.474375 -45.155 101.94875 -45.75 102.4375 C-49.14865282 104.79767557 -51.92065177 104.20396741 -56 104 C-56.12375 103.236875 -56.2475 102.47375 -56.375 101.6875 C-58.7223273 97.80538177 -61.63193166 97.57028381 -65.8828125 96.48046875 C-66.58148438 96.32191406 -67.28015625 96.16335937 -68 96 C-68 95.34 -68 94.68 -68 94 C-66.171875 92.5625 -66.171875 92.5625 -63.75 91 C-62.96109375 90.484375 -62.1721875 89.96875 -61.359375 89.4375 C-59 88 -59 88 -56.890625 87.0625 C-54.84894741 86.1007101 -54.84894741 86.1007101 -53.63671875 83.984375 C-51.35493644 81.21791817 -49.27188684 80.99395416 -45.8125 80.25 C-44.72582031 80.00765625 -43.63914062 79.7653125 -42.51953125 79.515625 C-41.68808594 79.34546875 -40.85664062 79.1753125 -40 79 C-40.26874705 77.04763234 -40.26874705 77.04763234 -41 75 C-43.98352894 73.21620585 -43.98352894 73.21620585 -47 72 C-46.75844535 68.73901226 -45.77284776 67.76730746 -43.4375 65.375 C-39.88419446 62.56520852 -36.4050742 61.83544511 -32 61 C-31.9175 60.38125 -31.835 59.7625 -31.75 59.125 C-30.75865992 56.31620312 -29.60425424 56.28283635 -27 55 C-25.4547697 52.8445416 -25.4547697 52.8445416 -24.25 50.375 C-23.5075 48.93125 -22.765 47.4875 -22 46 C-27.61 45.34 -33.22 44.68 -39 44 C-40 39 -40 39 -38.9375 37.375 C-37 36 -37 36 -34.0625 34.625 C-30.6495462 32.81404492 -29.27352453 31.08025904 -27 28 C-24.64614535 25.52543485 -22.3757705 23.27688352 -19.625 21.25 C-17.16410255 19.14065933 -15.50010675 17.13887821 -13.5625 14.5625 C-11.48256782 11.79980747 -9.5207146 9.40426161 -6.8125 7.25 C-4.06625331 5.05300264 -2.08961579 2.81294433 0 0 Z " fill="#FBFDFC" transform="translate(145,35)"/>
<path d="M0 0 C0.33 0 0.66 0 1 0 C1.13732398 9.85108863 0.7403853 19.54988696 0 29.375 C-0.0968137 30.70830005 -0.1931697 32.04163341 -0.2890625 33.375 C-0.52157612 36.58368791 -0.75861129 39.7919697 -1 43 C-4.31395986 44.08784335 -4.83580335 44.07262544 -8.25 42.5625 C-9.61125 41.7890625 -9.61125 41.7890625 -11 41 C-11 40.34 -11 39.68 -11 39 C-16.23873913 37.93348145 -21.30378299 37.81659324 -26.625 37.8125 C-27.8934375 37.79413086 -27.8934375 37.79413086 -29.1875 37.77539062 C-30.00476563 37.77345703 -30.82203125 37.77152344 -31.6640625 37.76953125 C-32.40092285 37.76542236 -33.1377832 37.76131348 -33.89697266 37.75708008 C-36.2977621 38.03439439 -37.86590134 38.90250238 -40 40 C-40.99 40 -41.98 40 -43 40 C-43.33 38.02 -43.66 36.04 -44 34 C-42.453125 33.7525 -42.453125 33.7525 -40.875 33.5 C-37.35456442 32.53029918 -36.15239158 31.15397326 -34.1875 28.125 C-30.85815232 23.16255766 -26.64397726 21.54295781 -21 20 C-20.34 20 -19.68 20 -19 20 C-18.67 20.66 -18.34 21.32 -18 22 C-15.06556598 21.73343428 -15.06556598 21.73343428 -12 21 C-9.89876136 17.84814203 -9.84286347 17.18359817 -9.8125 13.625 C-9.46193712 9.46543665 -9.46193712 9.46543665 -7.453125 7.44140625 C-6.20846549 6.61591926 -4.94248175 5.82158759 -3.65625 5.0625 C-1.57329604 3.72626539 -0.7764596 2.32937881 0 0 Z " fill="#109B4B" transform="translate(140,167)"/>
<path d="M0 0 C0.99 0.495 0.99 0.495 2 1 C2.41690722 15.32086355 1.35577515 29.17290426 -0.45361328 43.37670898 C-0.87918325 46.72036734 -1.28667235 50.06587075 -1.69140625 53.41210938 C-1.95730195 55.57043981 -2.22419253 57.72864797 -2.4921875 59.88671875 C-2.67356766 61.36346321 -2.67356766 61.36346321 -2.85861206 62.87004089 C-4.49832849 75.65998042 -4.49832849 75.65998042 -6 80 C-6.99 80.495 -6.99 80.495 -8 81 C-10.08447266 80.1706543 -10.08447266 80.1706543 -12.6640625 78.82421875 C-13.61337646 78.33115234 -14.56269043 77.83808594 -15.54077148 77.33007812 C-16.55856689 76.78802734 -17.5763623 76.24597656 -18.625 75.6875 C-20.1874646 74.86088867 -20.1874646 74.86088867 -21.78149414 74.01757812 C-35.8891885 66.47607769 -48.80727283 57.96885418 -61.44458008 48.16992188 C-62.92299319 47.05792131 -64.46076304 46.02615797 -66 45 C-66.33 45.99 -66.66 46.98 -67 48 C-67.20496094 47.12730469 -67.40992187 46.25460937 -67.62109375 45.35546875 C-69.34516069 41.16007639 -71.64532958 39.17013375 -75.0625 36.3125 C-80.88006757 31.3597973 -80.88006757 31.3597973 -82 28 C-82.66 28 -83.32 28 -84 28 C-86.21747812 25.69723426 -86.96760006 24.47519908 -87.1875 21.25 C-87.125625 20.5075 -87.06375 19.765 -87 19 C-86.34 18.67 -85.68 18.34 -85 18 C-82 24 -82 24 -81.0625 26.25 C-79.69651679 28.4998547 -78.35299932 28.85711462 -76 30 C-73.25 32.5 -73.25 32.5 -71 35 C-71 35.66 -71 36.32 -71 37 C-70.01 37 -69.02 37 -68 37 C-67.814375 37.556875 -67.62875 38.11375 -67.4375 38.6875 C-64.64845757 43.17422043 -59.78207719 45.60397193 -55.25 48.125 C-50.76971609 50.70977918 -50.76971609 50.70977918 -49 53 C-49 53.66 -49 54.32 -49 55 C-48.29875 55.2475 -47.5975 55.495 -46.875 55.75 C-44 57 -44 57 -41.125 58.9375 C-37.80728234 61.12719366 -34.67872378 62.52851049 -31 64 C-31 64.66 -31 65.32 -31 66 C-30.01 66 -29.02 66 -28 66 C-28 66.66 -28 67.32 -28 68 C-26.329375 68.4640625 -26.329375 68.4640625 -24.625 68.9375 C-21 70 -21 70 -19 71 C-19 71.66 -19 72.32 -19 73 C-13.555 73.495 -13.555 73.495 -8 74 C-7.67 69.71 -7.34 65.42 -7 61 C-6.34 61 -5.68 61 -5 61 C-5.08378906 60.28972656 -5.16757813 59.57945312 -5.25390625 58.84765625 C-5.40666016 57.46900391 -5.40666016 57.46900391 -5.5625 56.0625 C-5.71912109 54.68771484 -5.71912109 54.68771484 -5.87890625 53.28515625 C-5.93884766 52.15400391 -5.93884766 52.15400391 -6 51 C-5.67 50.67 -5.34 50.34 -5 50 C-4.59387474 47.45652939 -4.24499667 44.930639 -3.9375 42.375 C-3.84662109 41.67503906 -3.75574219 40.97507812 -3.66210938 40.25390625 C-3.2388478 36.82325984 -3.00043125 33.56961714 -3.00390625 30.1015625 C-3 27 -3 27 -2 25 C-1.77811206 23.11659623 -1.60810213 21.22694809 -1.46484375 19.3359375 C-1.37783203 18.21445312 -1.29082031 17.09296875 -1.20117188 15.9375 C-1.11416016 14.761875 -1.02714844 13.58625 -0.9375 12.375 C-0.84662109 11.19164062 -0.75574219 10.00828125 -0.66210938 8.7890625 C-0.43767767 5.85963815 -0.21714035 2.92997237 0 0 Z " fill="#167840" transform="translate(133,258)"/>
<path d="M0 0 C1.32 0.33 2.64 0.66 4 1 C2.75013223 10.41710716 -11.01597983 18.50918035 -18 24 C-18.96292969 24.77988281 -19.92585938 25.55976563 -20.91796875 26.36328125 C-55.6774148 53.98580682 -55.6774148 53.98580682 -68 53 C-70.10084738 43.2648233 -70.21105492 33.89613084 -70 24 C-67.12844119 29.36024311 -66.77125173 34.24404275 -66.37890625 40.24609375 C-65.98108838 43.13745045 -65.30033415 45.39007666 -64 48 C-61.95894361 48.88693303 -61.95894361 48.88693303 -60 49 C-60 48.34 -60 47.68 -60 47 C-56.63316085 44.56839395 -55.26649636 44 -51 44 C-50.67 43.01 -50.34 42.02 -50 41 C-46.62132353 38.53447933 -45.29441798 38 -41 38 C-40.67 37.01 -40.34 36.02 -40 35 C-39.01 35 -38.02 35 -37 35 C-36.67 34.01 -36.34 33.02 -36 32 C-34.1796875 30.5703125 -34.1796875 30.5703125 -31.875 29.125 C-31.06546875 28.60550781 -30.2559375 28.08601563 -29.421875 27.55078125 C-28.62265625 27.03902344 -27.8234375 26.52726562 -27 26 C-22.74178743 23.09888953 -18.92758031 20.16852784 -15.5 16.3125 C-14 15 -14 15 -11 15 C-10.7215625 14.1646875 -10.7215625 14.1646875 -10.4375 13.3125 C-8.92332167 10.87664791 -7.86490676 10.14424364 -5.5 8.625 C-1.9732434 6.27138489 -0.88423307 4.22466913 0 0 Z " fill="#14753D" transform="translate(241,284)"/>
<path d="M0 0 C0.33 0 0.66 0 1 0 C1.20208912 15.39627862 1.38517336 30.79270041 1.54658794 46.18945503 C1.6219891 53.34095642 1.7032469 60.49229538 1.79907227 67.64355469 C1.88273023 73.88795779 1.95460586 80.13237558 2.01323253 86.37706554 C2.04456618 89.67330599 2.08294498 92.9692013 2.13199425 96.26523209 C2.41828923 115.86075008 1.63660104 135.05379934 -3.5625 154.0625 C-3.77068359 154.87525391 -3.97886719 155.68800781 -4.19335938 156.52539062 C-5.22431891 160.47147712 -6.36386235 164.25271699 -8 168 C-9.1171875 166.43359375 -9.1171875 166.43359375 -10 164 C-9.3203125 160.72265625 -9.3203125 160.72265625 -8.125 157.0625 C-6.7737959 152.8791363 -5.71532844 149.41240917 -6 145 C-5.34 145 -4.68 145 -4 145 C-3.95101563 144.40058594 -3.90203125 143.80117187 -3.8515625 143.18359375 C-3.77679688 142.27738281 -3.70203125 141.37117187 -3.625 140.4375 C-3.53809906 139.3665358 -3.45119812 138.29557159 -3.36166382 137.19215393 C-3.10972957 134.18045257 -2.81999529 131.17421765 -2.51602173 128.16734314 C-1.05753636 113.32530601 -0.6599593 98.59764926 -0.5859375 83.69140625 C-0.56716746 81.25804532 -0.54759004 78.8246905 -0.5272522 76.39134216 C-0.47654017 70.07056325 -0.43659373 63.74976338 -0.39910889 57.42889404 C-0.35868099 50.9453845 -0.30776834 44.46195752 -0.2578125 37.97851562 C-0.16177749 25.31906992 -0.07679006 12.65957636 0 0 Z " fill="#057228" transform="translate(295,52)"/>
<path d="M0 0 C0.99 0.495 0.99 0.495 2 1 C2.77356817 3.33530013 3.44730026 5.6234109 4.0625 8 C4.89776859 12.34628161 4.89776859 12.34628161 7 16 C7.04063832 17.66617115 7.042721 19.33388095 7 21 C7.66 21 8.32 21 9 21 C9.268125 21.825 9.53625 22.65 9.8125 23.5 C10.69924412 26.11356162 11.63410305 28.67648564 12.625 31.25 C14 35 14 35 14 37 C14.66 37 15.32 37 16 37 C16 38.32 16 39.64 16 41 C17.485 41.495 17.485 41.495 19 42 C19.39044206 43.31774196 19.70955086 44.65667272 20 46 C21.74346857 50.0207863 21.74346857 50.0207863 24.44921875 53.39453125 C26.86033898 55.89067839 28.10414919 58.94509638 29.62109375 62.0390625 C30.84381259 64.17813116 30.84381259 64.17813116 33.16015625 64.7734375 C33.76730469 64.84820312 34.37445313 64.92296875 35 65 C35.1546875 66.175625 35.1546875 66.175625 35.3125 67.375 C35.77595022 70.33045181 35.77595022 70.33045181 39 72 C39 72.99 39 73.98 39 75 C31.28869943 71.65499701 26.57301572 63.32649681 22.25 56.4375 C21.74267334 55.62958008 21.23534668 54.82166016 20.71264648 53.98925781 C-1.76654425 17.3121336 -1.76654425 17.3121336 0 0 Z " fill="#15783E" transform="translate(6,203)"/>
<path d="M0 0 C0.99 0.33 1.98 0.66 3 1 C2.34 1 1.68 1 1 1 C1.10723766 15.92510225 1.21999883 30.85015515 1.33933926 45.77516556 C1.39462198 52.70507381 1.44809581 59.63498721 1.49731445 66.56494141 C1.54479781 73.24985403 1.5973178 79.93470958 1.65294075 86.61956024 C1.67335695 89.17287664 1.69207124 91.72620723 1.70907402 94.27954865 C1.73313412 97.84950396 1.7631868 101.41936141 1.79467773 104.98925781 C1.8004332 106.05021164 1.80618866 107.11116547 1.81211853 108.20426941 C1.82190735 109.17739578 1.83169617 110.15052216 1.84178162 111.15313721 C1.84823417 111.99749958 1.85468672 112.84186195 1.8613348 113.71181107 C1.99609401 115.93554518 2.44968134 117.84961741 3 120 C2.91620565 122.08674954 2.76583244 124.17149066 2.5625 126.25 C2.46066406 127.32765625 2.35882813 128.4053125 2.25390625 129.515625 C2.17011719 130.33546875 2.08632813 131.1553125 2 132 C1.67 132 1.34 132 1 132 C-0.15965489 125.56968256 -0.13402527 119.25182933 -0.11352539 112.73071289 C-0.11367142 111.51049438 -0.11381744 110.29027588 -0.1139679 109.03308105 C-0.11339267 105.70506467 -0.1083947 102.37711115 -0.10139394 99.04910588 C-0.09512139 95.56443166 -0.09455352 92.07975651 -0.09336853 88.59507751 C-0.09026669 82.00439111 -0.08206881 75.4137214 -0.07201904 68.82304233 C-0.06082222 61.3163746 -0.05533847 53.80970605 -0.05032361 46.30303204 C-0.0398852 30.86867838 -0.02230804 15.43434135 0 0 Z " fill="#046827" transform="translate(0,48)"/>
<path d="M0 0 C0.33 0 0.66 0 1 0 C2.17402424 11.67501884 -12.21777118 27.10920037 -19.30859375 35.84375 C-24.46303664 41.82101221 -24.46303664 41.82101221 -28 43 C-27.505 40.03 -27.505 40.03 -27 37 C-26.01 37.33 -25.02 37.66 -24 38 C-23.814375 37.0409375 -23.814375 37.0409375 -23.625 36.0625 C-23.41875 35.381875 -23.2125 34.70125 -23 34 C-22.01 33.505 -22.01 33.505 -21 33 C-20.34786708 30.97536745 -20.34786708 30.97536745 -20 29 C-19.01 29 -18.02 29 -17 29 C-16.90589844 28.43152344 -16.81179688 27.86304688 -16.71484375 27.27734375 C-15.83289696 24.46764442 -14.44393335 22.81943772 -12.5625 20.5625 C-9.99757294 17.48351658 -8.33037867 14.79057641 -7 11 C-6.34 11 -5.68 11 -5 11 C-4.80664062 10.37351563 -4.61328125 9.74703125 -4.4140625 9.1015625 C-4.02347656 7.87566406 -4.02347656 7.87566406 -3.625 6.625 C-3.36976563 5.81289062 -3.11453125 5.00078125 -2.8515625 4.1640625 C-2 2 -2 2 0 0 Z " fill="#167A3F" transform="translate(276,239)"/>
<path d="M0 0 C0.33 0 0.66 0 1 0 C1.83240569 3.77030815 2.26647955 7.46423414 2.5625 11.3125 C2.64628906 12.38113281 2.73007813 13.44976562 2.81640625 14.55078125 C2.87699219 15.35902344 2.93757812 16.16726562 3 17 C3.66 17 4.32 17 5 17 C4.896875 16.2575 4.79375 15.515 4.6875 14.75 C5 12 5 12 7.3125 9.75 C11.26572648 7.17580601 14.06916467 6.88316664 18.6875 6.9375 C19.68136719 6.94652344 20.67523438 6.95554688 21.69921875 6.96484375 C22.83810547 6.98224609 22.83810547 6.98224609 24 7 C24 7.33 24 7.66 24 8 C16.575 9.485 16.575 9.485 9 11 C7.66695302 13.89186786 7.66695302 13.89186786 8.9375 16.1875 C9.288125 16.785625 9.63875 17.38375 10 18 C8.87926138 18.83905565 7.75325453 19.67107831 6.625 20.5 C5.99851563 20.9640625 5.37203125 21.428125 4.7265625 21.90625 C3 23 3 23 1 23 C-0.24911667 15.34916042 -0.09053426 7.72559014 0 0 Z " fill="#09802C" transform="translate(163,210)"/>
<path d="M0 0 C5.70629354 0.42797202 9.41078616 2.84345952 14 6 C11.74402173 8.25597827 9.95396133 8.96574192 7 10.125 C6.113125 10.47820312 5.22625 10.83140625 4.3125 11.1953125 C2 12 2 12 0 12 C0 8.04 0 4.08 0 0 Z " fill="#109950" transform="translate(161,185)"/>
<path d="M0 0 C2.97 0.33 5.94 0.66 9 1 C8.67 17.83 8.34 34.66 8 52 C7.34 51.67 6.68 51.34 6 51 C6.33 35.16 6.66 19.32 7 3 C4.69 2.34 2.38 1.68 0 1 C0 0.67 0 0.34 0 0 Z " fill="#059345" transform="translate(287,46)"/>
<path d="M0 0 C0.66 0.33 1.32 0.66 2 1 C2.02888146 4.31248187 2.04675799 7.62493167 2.0625 10.9375 C2.07087891 11.88302734 2.07925781 12.82855469 2.08789062 13.80273438 C2.09111328 14.70185547 2.09433594 15.60097656 2.09765625 16.52734375 C2.10289307 17.35999756 2.10812988 18.19265137 2.11352539 19.05053711 C2 21 2 21 1 22 C0.63239269 24.32817964 0.29758419 26.6618385 0 29 C-0.33 29 -0.66 29 -1 29 C-1.02948491 25.85418698 -1.04695916 22.70841037 -1.0625 19.5625 C-1.07506836 18.24475586 -1.07506836 18.24475586 -1.08789062 16.90039062 C-1.10899107 11.18216923 -0.73280057 5.67199185 0 0 Z " fill="#0D7B38" transform="translate(133,258)"/>
<path d="M0 0 C0.66 0.33 1.32 0.66 2 1 C1.01 1.33 0.02 1.66 -1 2 C-1 2.66 -1 3.32 -1 4 C-2.32 4 -3.64 4 -5 4 C-5.33 5.32 -5.66 6.64 -6 8 C-6.99 8 -7.98 8 -9 8 C-9 14.6 -9 21.2 -9 28 C-9.33 28 -9.66 28 -10 28 C-10.33 20.41 -10.66 12.82 -11 5 C-2.6015625 0.99609375 -2.6015625 0.99609375 0 0 Z " fill="#037223" transform="translate(175,236)"/>
<path d="M0 0 C1.32 0.66 2.64 1.32 4 2 C2.02 2.66 0.04 3.32 -2 4 C-1.71125 4.5775 -1.4225 5.155 -1.125 5.75 C-0.39553577 7.20892845 0.29496579 8.6882535 0.9375 10.1875 C1.93434552 12.34395107 1.93434552 12.34395107 5 13 C5 13.66 5 14.32 5 15 C6.65 15.33 8.3 15.66 10 16 C9.67 18.97 9.34 21.94 9 25 C8.67 25 8.34 25 8 25 C8 22.36 8 19.72 8 17 C7.360625 16.896875 6.72125 16.79375 6.0625 16.6875 C5.0415625 16.3471875 5.0415625 16.3471875 4 16 C3.67 15.01 3.34 14.02 3 13 C2.01 12.67 1.02 12.34 0 12 C-1.84499398 10.12382302 -3.3683599 8.07262391 -5 6 C-3.63016497 2.83884224 -3.0109362 2.0072908 0 0 Z " fill="#09792A" transform="translate(127,232)"/>
<path d="M0 0 C2.31 0.33 4.62 0.66 7 1 C6.67 3.64 6.34 6.28 6 9 C5.67 9 5.34 9 5 9 C5 7.02 5 5.04 5 3 C3.02 3.33 1.04 3.66 -1 4 C-1.1546875 4.9590625 -1.1546875 4.9590625 -1.3125 5.9375 C-1.539375 6.618125 -1.76625 7.29875 -2 8 C-5.47325181 9.1577506 -8.36067448 9.06866652 -12 9 C-12.33 8.34 -12.66 7.68 -13 7 C-12.09507813 6.99613281 -12.09507813 6.99613281 -11.171875 6.9921875 C-8.65536583 6.87042093 -6.43350057 6.66596659 -4 6 C-1.38025574 3.11725921 -1.38025574 3.11725921 0 0 Z " fill="#0F893A" transform="translate(133,218)"/>
<path d="M0 0 C2.38016675 4.44297793 3.15943434 8.50737922 3.6875 13.5 C3.79449219 14.4384375 3.90148437 15.376875 4.01171875 16.34375 C3.99922163 19.17643098 3.46811708 20.61501287 2 23 C-0.07434732 17.88763219 -0.24424065 13.53669107 -0.125 8.125 C-0.11597656 7.34125 -0.10695312 6.5575 -0.09765625 5.75 C-0.07428063 3.83319945 -0.03841653 1.91655809 0 0 Z " fill="#12733B" transform="translate(171,308)"/>
<path d="M0 0 C0.99 0.66 1.98 1.32 3 2 C1.515 2.86625 1.515 2.86625 0 3.75 C-1.485 4.86375 -1.485 4.86375 -3 6 C-3 7.32 -3 8.64 -3 10 C2.61 10.66 8.22 11.32 14 12 C14 12.33 14 12.66 14 13 C11.77308629 13.25011345 9.54324878 13.47428352 7.3125 13.6875 C6.07113281 13.81511719 4.82976562 13.94273438 3.55078125 14.07421875 C-0.33830003 13.99292882 -2.03083931 13.47337213 -5 11 C-5.625 7.5625 -5.625 7.5625 -5 4 C-2.5 1.5625 -2.5 1.5625 0 0 Z " fill="#0ABE53" transform="translate(109,68)"/>
<path d="M0 0 C3.875 3.75 3.875 3.75 5 6 C8.02934491 6.65772428 8.02934491 6.65772428 11 7 C8.93243723 9.7972908 7.85559629 10.02692273 4.3125 10.6875 C3.219375 10.790625 2.12625 10.89375 1 11 C0.67 7.37 0.34 3.74 0 0 Z " fill="#207A47" transform="translate(172,326)"/>
<path d="M0 0 C-3.2334275 2.80178062 -6.10448769 3.74124175 -10.25 4.6875 C-11.32765625 4.93886719 -12.4053125 5.19023438 -13.515625 5.44921875 C-14.74539063 5.72185547 -14.74539063 5.72185547 -16 6 C-16 6.66 -16 7.32 -16 8 C-17.9375 7.625 -17.9375 7.625 -20 7 C-20.33 6.34 -20.66 5.68 -21 5 C-18.06746654 3.96448955 -15.12833062 2.94918162 -12.1875 1.9375 C-11.35412109 1.64294922 -10.52074219 1.34839844 -9.66210938 1.04492188 C-8.45844727 0.6340332 -8.45844727 0.6340332 -7.23046875 0.21484375 C-6.49207764 -0.04176025 -5.75368652 -0.29836426 -4.99291992 -0.56274414 C-3 -1 -3 -1 0 0 Z " fill="#23A25B" transform="translate(21,42)"/>
<path d="M0 0 C0.33 0 0.66 0 1 0 C2.59295252 7.04321983 3.1710655 12.85650045 2 20 C1.34 20 0.68 20 0 20 C0 21.65 0 23.3 0 25 C-0.33 25 -0.66 25 -1 25 C-0.67 16.75 -0.34 8.5 0 0 Z " fill="#0F833E" transform="translate(294,162)"/>
<path d="M0 0 C1.98 0 3.96 0 6 0 C6.33 0.66 6.66 1.32 7 2 C7.99 2.33 8.98 2.66 10 3 C11.09765625 4.55859375 11.09765625 4.55859375 12.0625 6.4375 C13.26019398 8.74149765 14.13152817 10.13152817 16 12 C16 12.99 16 13.98 16 15 C14.125 14.3125 14.125 14.3125 12 13 C11.731875 12.2575 11.46375 11.515 11.1875 10.75 C9.04720697 5.79353193 4.39677135 2.9311809 0 0 Z " fill="#0EBE52" transform="translate(191,89)"/>
<path d="M0 0 C1.85953078 3.25808543 2.53823806 6.24462525 3.125 9.9375 C3.37636719 11.46697266 3.37636719 11.46697266 3.6328125 13.02734375 C3.96614565 15.72592382 4.06998996 18.28538935 4 21 C3.67 20.01 3.34 19.02 3 18 C2.34 18 1.68 18 1 18 C-0.2039337 14.24600202 -0.09877617 10.66782588 -0.0625 6.75 C-0.05347656 5.48671875 -0.04445312 4.2234375 -0.03515625 2.921875 C-0.02355469 1.95765625 -0.01195313 0.9934375 0 0 Z " fill="#107939" transform="translate(2,181)"/>
<path d="M0 0 C1.65 0.33 3.3 0.66 5 1 C3.86695008 4.39914975 2.87481525 5.05254451 0 7 C0.65585189 10.60992379 0.65585189 10.60992379 2 14 C0.0625 13.4375 0.0625 13.4375 -2 12 C-2.875 8.5 -2.875 8.5 -3 5 C-2.34 4.34 -1.68 3.68 -1 3 C-0.67 2.01 -0.34 1.02 0 0 Z " fill="#0B923B" transform="translate(76,183)"/>
<path d="M0 0 C0.33 0 0.66 0 1 0 C1.25015041 3.92597168 0.67722383 6.26841917 -1.25 9.6875 C-1.87648438 10.83798828 -1.87648438 10.83798828 -2.515625 12.01171875 C-4.1558022 14.20869295 -5.48097387 14.99346605 -8 16 C-7.67 14.35 -7.34 12.7 -7 11 C-6.34 11 -5.68 11 -5 11 C-4.80664062 10.37351563 -4.61328125 9.74703125 -4.4140625 9.1015625 C-4.02347656 7.87566406 -4.02347656 7.87566406 -3.625 6.625 C-3.36976563 5.81289062 -3.11453125 5.00078125 -2.8515625 4.1640625 C-2 2 -2 2 0 0 Z " fill="#117338" transform="translate(276,239)"/>
<path d="M0 0 C2 3.75 2 3.75 2 6 C1.1646875 6.3403125 1.1646875 6.3403125 0.3125 6.6875 C-2.63296499 8.3592504 -4.64324185 10.58281215 -7 13 C-7.99 13.66 -8.98 14.32 -10 15 C-8.25 11.125 -8.25 11.125 -6 10 C-5.26924352 7.6859378 -4.59861742 5.35171131 -4 3 C-3.34 3 -2.68 3 -2 3 C-2 3.66 -2 4.32 -2 5 C-1.34 5 -0.68 5 0 5 C0 3.35 0 1.7 0 0 Z " fill="#0A8E39" transform="translate(94,209)"/>
<path d="M0 0 C0.33 0 0.66 0 1 0 C1.18451025 14.78132118 1.18451025 14.78132118 0 21 C-0.33 21 -0.66 21 -1 21 C-1 16.05 -1 11.1 -1 6 C-1.99 5.67 -2.98 5.34 -4 5 C-3.525625 4.54625 -3.05125 4.0925 -2.5625 3.625 C-0.90972192 2.06741796 -0.90972192 2.06741796 0 0 Z " fill="#0F8C38" transform="translate(140,167)"/>
<path d="M0 0 C1.258125 -0.04125 2.51625 -0.0825 3.8125 -0.125 C4.52019531 -0.14820312 5.22789062 -0.17140625 5.95703125 -0.1953125 C8 0 8 0 11 2 C10.01 2.495 10.01 2.495 9 3 C9 4.65 9 6.3 9 8 C4.7257442 6.4169423 2.73468206 3.49431596 0 0 Z " fill="#11B95E" transform="translate(185,117)"/>
<path d="M0 0 C0.33 0 0.66 0 1 0 C1.04898438 0.77085937 1.09796875 1.54171875 1.1484375 2.3359375 C1.22320312 3.33882812 1.29796875 4.34171875 1.375 5.375 C1.44460937 6.37273437 1.51421875 7.37046875 1.5859375 8.3984375 C1.76363964 11.15508879 1.76363964 11.15508879 4 13 C3.66015625 14.828125 3.66015625 14.828125 3 17 C2.78807905 18.58025005 2.60076629 20.16398461 2.4375 21.75 C2.35371094 22.54921875 2.26992187 23.3484375 2.18359375 24.171875 C2.12300781 24.77515625 2.06242188 25.3784375 2 26 C1.67 26 1.34 26 1 26 C-0.01286753 17.30019136 -0.10621544 8.74507107 0 0 Z " fill="#34995D" transform="translate(164,250)"/>
<path d="M0 0 C0.33 0 0.66 0 1 0 C1 1.65 1 3.3 1 5 C1.66 5 2.32 5 3 5 C3.66 6.98 4.32 8.96 5 11 C4.34 11 3.68 11 3 11 C2.67 11.99 2.34 12.98 2 14 C1.30093058 12.40084119 0.61610532 10.79544955 -0.0625 9.1875 C-0.44535156 8.29417969 -0.82820312 7.40085938 -1.22265625 6.48046875 C-2 4 -2 4 -1 1 C-0.67 0.67 -0.34 0.34 0 0 Z " fill="#1A8348" transform="translate(12,219)"/>
<path d="M0 0 C-1.1875 2.4375 -1.1875 2.4375 -3 5 C-5.6875 5.8125 -5.6875 5.8125 -8 6 C-8.33 4.02 -8.66 2.04 -9 0 C-3.375 -1.125 -3.375 -1.125 0 0 Z " fill="#0E9341" transform="translate(105,201)"/>
<path d="M0 0 C0.33 1.32 0.66 2.64 1 4 C1.66 4 2.32 4 3 4 C3.45375 4.94875 3.9075 5.8975 4.375 6.875 C5.80238254 10.00313679 5.80238254 10.00313679 8 12 C8.125 14.625 8.125 14.625 8 17 C7.01 17.33 6.02 17.66 5 18 C5 17.34 5 16.68 5 16 C5.66 16 6.32 16 7 16 C6.1028125 14.948125 6.1028125 14.948125 5.1875 13.875 C3.01688939 11.02219748 1.51207759 8.24016627 0 5 C-0.33 4.34 -0.66 3.68 -1 3 C-0.67 2.01 -0.34 1.02 0 0 Z " fill="#0D9439" transform="translate(222,188)"/>
<path d="M0 0 C2.475 0.99 2.475 0.99 5 2 C5 2.66 5 3.32 5 4 C5.66 4 6.32 4 7 4 C7.391875 4.928125 7.78375 5.85625 8.1875 6.8125 C10.12822616 10.22550118 11.53018941 11.31198404 15 13 C14.01 13.495 14.01 13.495 13 14 C6.80319165 11.41799652 3.58141232 5.37211848 0 0 Z " fill="#09BE4C" transform="translate(169,52)"/>
<path d="M0 0 C0.33 0.33 0.66 0.66 1 1 C2.66617115 1.04063832 4.33388095 1.042721 6 1 C2.85408067 3.80045623 0.932936 4.35261589 -3.25 4.1875 C-4.14203125 4.16042969 -5.0340625 4.13335937 -5.953125 4.10546875 C-6.96632812 4.05326172 -6.96632812 4.05326172 -8 4 C-7.67 3.01 -7.34 2.02 -7 1 C-4.51588385 -0.24205807 -2.74800896 -0.14092354 0 0 Z " fill="#1ABF64" transform="translate(175,79)"/>
<path d="M0 0 C0.66 0 1.32 0 2 0 C2 0.66 2 1.32 2 2 C3.32 2 4.64 2 6 2 C6 2.66 6 3.32 6 4 C8.64 4.66 11.28 5.32 14 6 C14 6.66 14 7.32 14 8 C12.22604492 7.57533503 10.45589369 7.1347591 8.6875 6.6875 C7.70136719 6.44386719 6.71523437 6.20023437 5.69921875 5.94921875 C2.98352126 4.99420501 1.71596675 4.27819477 0 2 C0 1.34 0 0.68 0 0 Z " fill="#126832" transform="translate(112,329)"/>
<path d="M0 0 C0.33 0 0.66 0 1 0 C0.88556397 2.0839403 0.75804453 4.16716493 0.625 6.25 C0.55539062 7.41015625 0.48578125 8.5703125 0.4140625 9.765625 C0.03751692 12.70694334 -0.4774123 14.49949011 -2 17 C-3.14879864 10.74542962 -3.6310464 5.4465696 0 0 Z " fill="#218E4F" transform="translate(294,182)"/>
<path d="M0 0 C0.33 0 0.66 0 1 0 C1.28571429 7.42857143 1.28571429 7.42857143 -1 11 C-1.66 11 -2.32 11 -3 11 C-3.33 11.66 -3.66 12.32 -4 13 C-4 11.35 -4 9.7 -4 8 C-3.34 8 -2.68 8 -2 8 C-1.855625 6.865625 -1.71125 5.73125 -1.5625 4.5625 C-1 1 -1 1 0 0 Z " fill="#107539" transform="translate(282,224)"/>
<path d="M0 0 C0.99 0.33 1.98 0.66 3 1 C3 2.65 3 4.3 3 6 C2.34 6 1.68 6 1 6 C0.67 5.01 0.34 4.02 0 3 C-0.515625 3.495 -1.03125 3.99 -1.5625 4.5 C-4.80680017 6.49649241 -7.26217334 6.21564385 -11 6 C-10.67 5.34 -10.34 4.68 -10 4 C-9.278125 4.0825 -8.55625 4.165 -7.8125 4.25 C-4.17145478 3.92635154 -2.77852313 2.26668992 0 0 Z " fill="#0B9E3F" transform="translate(115,132)"/>
<path d="M0 0 C5.66442374 0.36504064 10.00703705 1.0554321 15 4 C11.21180727 5.43410153 8.93478721 4.51009497 5.25 3.0625 C3.77273438 2.49208984 3.77273438 2.49208984 2.265625 1.91015625 C1.51796875 1.60980469 0.7703125 1.30945312 0 1 C0 0.67 0 0.34 0 0 Z " fill="#16954C" transform="translate(268,40)"/>
<path d="M0 0 C0.33 0 0.66 0 1 0 C1.12375 0.78375 1.2475 1.5675 1.375 2.375 C1.79117993 5.14057822 1.79117993 5.14057822 4 7 C4.125 9.625 4.125 9.625 4 12 C3.67 12 3.34 12 3 12 C2.67 13.65 2.34 15.3 2 17 C1.67 17 1.34 17 1 17 C0.67 11.39 0.34 5.78 0 0 Z " fill="#2C9057" transform="translate(167,285)"/>
<path d="M0 0 C0.66 0 1.32 0 2 0 C2.04898438 0.63808594 2.09796875 1.27617187 2.1484375 1.93359375 C2.22320312 2.75988281 2.29796875 3.58617187 2.375 4.4375 C2.44460937 5.26121094 2.51421875 6.08492187 2.5859375 6.93359375 C2.72257813 7.61550781 2.85921875 8.29742187 3 9 C3.66 9.33 4.32 9.66 5 10 C3.35 10.66 1.7 11.32 0 12 C0 8.04 0 4.08 0 0 Z " fill="#078633" transform="translate(161,185)"/>
<path d="M0 0 C-4.73724554 2.45634954 -8.56500474 4.31057116 -14 4 C-14 3.34 -14 2.68 -14 2 C-9.07262981 0.02905192 -5.21979128 -0.1799928 0 0 Z " fill="#169851" transform="translate(130,8)"/>
<path d="M0 0 C4.19360449 0.67097672 7.40334352 2.8558394 11 5 C8.4345406 7.5654594 6.52313332 7.54046087 3 8 C4.32 7.34 5.64 6.68 7 6 C7 5.34 7 4.68 7 4 C6.401875 3.896875 5.80375 3.79375 5.1875 3.6875 C2.71756736 2.91123545 1.67748765 1.92911079 0 0 Z " fill="#0B8230" transform="translate(164,186)"/>
<path d="M0 0 C1.51953125 1.17578125 1.51953125 1.17578125 3 3 C3.07421875 5.48046875 3.07421875 5.48046875 2.6875 8.1875 C2.56761719 9.08855469 2.44773438 9.98960937 2.32421875 10.91796875 C2.21722656 11.60503906 2.11023438 12.29210937 2 13 C1.67 13 1.34 13 1 13 C-0.10228696 8.59085217 -0.07654536 4.51617599 0 0 Z " fill="#06642B" transform="translate(172,318)"/>
<path d="M0 0 C1.12377697 3.30435084 0.89554742 5.0506862 -0.4375 8.25 C-0.72496094 8.95640625 -1.01242187 9.6628125 -1.30859375 10.390625 C-1.53675781 10.92171875 -1.76492188 11.4528125 -2 12 C-3.125 10.375 -3.125 10.375 -4 8 C-3.16933916 4.53891316 -2.52986895 2.52986895 0 0 Z " fill="#1F8349" transform="translate(289,208)"/>
<path d="M0 0 C3.67230705 3.07999946 4.56802365 5.2482602 5 10 C2 9 2 9 0.8125 7.25 C-0.10819096 4.70039426 -0.14948718 2.69076919 0 0 Z " fill="#117439" transform="translate(15,230)"/>
<path d="M0 0 C-0.33 4.62 -0.66 9.24 -1 14 C-1.33 14 -1.66 14 -2 14 C-2.33 9.71 -2.66 5.42 -3 1 C-1 0 -1 0 0 0 Z " fill="#278B52" transform="translate(132,299)"/>
<path d="M0 0 C1.32 0.66 2.64 1.32 4 2 C2.02 2.66 0.04 3.32 -2 4 C-1.67 5.32 -1.34 6.64 -1 8 C-1.99 8 -2.98 8 -4 8 C-4.33 6.68 -4.66 5.36 -5 4 C-3.35 2.68 -1.7 1.36 0 0 Z " fill="#0B8636" transform="translate(127,232)"/>
<path d="M0 0 C0.33 0 0.66 0 1 0 C1 3.96 1 7.92 1 12 C-4 11 -4 11 -6 9 C-4.35 9 -2.7 9 -1 9 C-0.67 6.03 -0.34 3.06 0 0 Z " fill="#0E8730" transform="translate(137,199)"/>
<path d="M0 0 C3.63 0.33 7.26 0.66 11 1 C11 1.33 11 1.66 11 2 C9.02 2.33 7.04 2.66 5 3 C5.66 3.66 6.32 4.32 7 5 C4.625 4.75 4.625 4.75 2 4 C1.34 2.68 0.68 1.36 0 0 Z " fill="#0E953F" transform="translate(185,168)"/>
<path d="M0 0 C0.33 0 0.66 0 1 0 C0.67 4.62 0.34 9.24 0 14 C-0.33 14 -0.66 14 -1 14 C-1.22226864 12.23086176 -1.42733873 10.45955629 -1.625 8.6875 C-1.74101563 7.70136719 -1.85703125 6.71523438 -1.9765625 5.69921875 C-2 3 -2 3 0 0 Z " fill="#016324" transform="translate(129,306)"/>
<path d="M0 0 C4.31392226 0.4793247 6.16569547 1.7457985 9 5 C4.98525763 5 3.18024863 3.33218233 0 1 C0 0.67 0 0.34 0 0 Z " fill="#207B46" transform="translate(85,315)"/>
<path d="M0 0 C0.99 1.32 1.98 2.64 3 4 C0 6 0 6 -2.1875 5.625 C-2.785625 5.41875 -3.38375 5.2125 -4 5 C-4 4.34 -4 3.68 -4 3 C-2.68 2.67 -1.36 2.34 0 2 C0 1.34 0 0.68 0 0 Z " fill="#118F42" transform="translate(170,224)"/>
<path d="M0 0 C1.98 0.66 3.96 1.32 6 2 C6 2.66 6 3.32 6 4 C7.32 4.66 8.64 5.32 10 6 C9.34 6.66 8.68 7.32 8 8 C6.66372225 6.85760183 5.33104612 5.71098945 4 4.5625 C3.2575 3.92441406 2.515 3.28632812 1.75 2.62890625 C1.1725 2.09136719 0.595 1.55382813 0 1 C0 0.67 0 0.34 0 0 Z " fill="#0DC352" transform="translate(159,44)"/>
<path d="M0 0 C7.50769231 0.61538462 7.50769231 0.61538462 10 2.5625 C10.33 3.036875 10.66 3.51125 11 4 C7.0507432 3.44894091 3.65079826 2.61064629 0 1 C0 0.67 0 0.34 0 0 Z " fill="#0F9548" transform="translate(224,26)"/>
<path d="M0 0 C2.97 0.33 5.94 0.66 9 1 C9 1.66 9 2.32 9 3 C9.66 3.33 10.32 3.66 11 4 C9.53984709 3.71758359 8.08190207 3.42373386 6.625 3.125 C5.81289062 2.96257813 5.00078125 2.80015625 4.1640625 2.6328125 C2 2 2 2 0 0 Z " fill="#17984E" transform="translate(186,14)"/>
<path d="M0 0 C0.33 0 0.66 0 1 0 C1 1.65 1 3.3 1 5 C-1.8125 6.5625 -1.8125 6.5625 -5 8 C-5.99 7.67 -6.98 7.34 -8 7 C-7.05125 6.401875 -6.1025 5.80375 -5.125 5.1875 C-1.86035803 3.18437474 -1.86035803 3.18437474 0 0 Z " fill="#039A34" transform="translate(225,159)"/>
<path d="M0 0 C4.455 0.99 4.455 0.99 9 2 C8.67 2.99 8.34 3.98 8 5 C5.83125748 4.49396008 4.00032373 4.00016187 2 3 C2 2.34 2 1.68 2 1 C1.34 0.67 0.68 0.34 0 0 Z " fill="#1CA65C" transform="translate(166,7)"/>
<path d="M0 0 C2.95214486 0.98404829 4.66633067 1.98821609 7 4 C7 4.66 7 5.32 7 6 C3.54074837 4.7508258 0.85306797 3.32472205 -2 1 C-1.34 0.67 -0.68 0.34 0 0 Z " fill="#16B554" transform="translate(198,127)"/>
<path d="M0 0 C0 2 0 2 -2.375 4.5625 C-5 7 -5 7 -7 8 C-6.65930765 4.84859577 -6.41923159 3.39218439 -4.0625 1.1875 C-2 0 -2 0 0 0 Z " fill="#0FC356" transform="translate(127,54)"/>
<path d="M0 0 C0 0.66 0 1.32 0 2 C-0.66 2 -1.32 2 -2 2 C-2 2.66 -2 3.32 -2 4 C-3.9375 3.625 -3.9375 3.625 -6 3 C-6.33 2.34 -6.66 1.68 -7 1 C-4.53721199 -0.231394 -2.7204945 -0.07159196 0 0 Z " fill="#179D54" transform="translate(7,46)"/>
<path d="M0 0 C4.455 0.99 4.455 0.99 9 2 C8.67 2.66 8.34 3.32 8 4 C5.03 3.505 5.03 3.505 2 3 C2 2.34 2 1.68 2 1 C1.34 0.67 0.68 0.34 0 0 Z " fill="#1EA459" transform="translate(252,34)"/>
<path d="M0 0 C1.32 0 2.64 0 4 0 C3.67 1.32 3.34 2.64 3 4 C2.01 4 1.02 4 0 4 C-0.33 4.99 -0.66 5.98 -1 7 C-0.67 4.69 -0.34 2.38 0 0 Z " fill="#098A3F" transform="translate(166,240)"/>
<path d="M0 0 C1.98 0 3.96 0 6 0 C5.67 2.64 5.34 5.28 5 8 C4.67 8 4.34 8 4 8 C3.896875 7.05125 3.79375 6.1025 3.6875 5.125 C3.31460705 1.70892499 3.31460705 1.70892499 0 0 Z " fill="#117F30" transform="translate(134,219)"/>
<path d="M0 0 C1.00289062 0.10183594 2.00578125 0.20367187 3.0390625 0.30859375 C3.80992188 0.39238281 4.58078125 0.47617188 5.375 0.5625 C5.375 0.8925 5.375 1.2225 5.375 1.5625 C3.77273045 1.78495393 2.16803233 1.98996669 0.5625 2.1875 C-0.33082031 2.30351563 -1.22414063 2.41953125 -2.14453125 2.5390625 C-4.625 2.5625 -4.625 2.5625 -7.625 0.5625 C-4.89657939 -0.80171031 -3.01546682 -0.31557211 0 0 Z " fill="#23C066" transform="translate(117.625,79.4375)"/>
<path d="M0 0 C-0.33 0.66 -0.66 1.32 -1 2 C-3.375 2.75 -3.375 2.75 -6 3 C-6.99 2.34 -7.98 1.68 -9 1 C-2.25 -1.125 -2.25 -1.125 0 0 Z " fill="#1EA759" transform="translate(62,29)"/>
<path d="M0 0 C1.65 0 3.3 0 5 0 C5 0.33 5 0.66 5 1 C3.35 1 1.7 1 0 1 C0 0.67 0 0.34 0 0 Z " fill="#79CB9A" transform="translate(156,251)"/>
<path d="M0 0 C1.65 0 3.3 0 5 0 C5 0.33 5 0.66 5 1 C3.35 1 1.7 1 0 1 C0 0.67 0 0.34 0 0 Z " fill="#80CDA0" transform="translate(148,251)"/>
<path d="M0 0 C0.66 0.66 1.32 1.32 2 2 C1.01 1.67 0.02 1.34 -1 1 C-0.67 0.67 -0.34 0.34 0 0 Z " fill="#248952" transform="translate(58,296)"/>
<path d="M0 0 C0.66 0.66 1.32 1.32 2 2 C1.34 2 0.68 2 0 2 C0 1.34 0 0.68 0 0 Z " fill="#348B5C" transform="translate(170,336)"/>
<path d="M0 0 C0.66 0 1.32 0 2 0 C1.67 0.66 1.34 1.32 1 2 C0.67 1.34 0.34 0.68 0 0 Z " fill="#2F8A58" transform="translate(170,334)"/>
<path d="M0 0 C0.66 0 1.32 0 2 0 C1.67 0.66 1.34 1.32 1 2 C0.67 1.34 0.34 0.68 0 0 Z " fill="#48AA73" transform="translate(162,268)"/>
<path d="M0 0 C0.66 0 1.32 0 2 0 C1.67 0.66 1.34 1.32 1 2 C0.67 1.34 0.34 0.68 0 0 Z " fill="#229256" transform="translate(2,204)"/>
<path d="" fill="#259557" transform="translate(0,0)"/>
<path d="M0 0 C2 1 2 1 2 1 Z " fill="#35875B" transform="translate(174,338)"/>
<path d="" fill="#288C54" transform="translate(0,0)"/>
<path d="" fill="#45A86E" transform="translate(0,0)"/>
<path d="" fill="#218950" transform="translate(0,0)"/>
<path d="" fill="#5DB584" transform="translate(0,0)"/>
<path d="" fill="#218B52" transform="translate(0,0)"/>
<path d="" fill="#258F54" transform="translate(0,0)"/>
<path d="M0 0 C2 1 2 1 2 1 Z " fill="#238C54" transform="translate(10,228)"/>
<path d="" fill="#249557" transform="translate(0,0)"/>
<path d="" fill="#259056" transform="translate(0,0)"/>
<path d="" fill="#26A562" transform="translate(0,0)"/>
<path d="" fill="#21A860" transform="translate(0,0)"/>
<path d="M0 0 C2 1 2 1 2 1 Z " fill="#26AE66" transform="translate(129,4)"/>
<path d="" fill="#34885C" transform="translate(0,0)"/>
<path d="" fill="#32865A" transform="translate(0,0)"/>
<path d="" fill="#54886D" transform="translate(0,0)"/>
<path d="" fill="#32865B" transform="translate(0,0)"/>
<path d="" fill="#338958" transform="translate(0,0)"/>
<path d="" fill="#2D8356" transform="translate(0,0)"/>
<path d="" fill="#278556" transform="translate(0,0)"/>
<path d="" fill="#2D8956" transform="translate(0,0)"/>
<path d="" fill="#4F876B" transform="translate(0,0)"/>
<path d="" fill="#288553" transform="translate(0,0)"/>
<path d="" fill="#2A8F56" transform="translate(0,0)"/>
<path d="" fill="#2A8655" transform="translate(0,0)"/>
<path d="" fill="#488966" transform="translate(0,0)"/>
<path d="" fill="#268753" transform="translate(0,0)"/>
<path d="" fill="#318957" transform="translate(0,0)"/>
<path d="" fill="#448764" transform="translate(0,0)"/>
<path d="" fill="#3E8761" transform="translate(0,0)"/>
<path d="" fill="#248856" transform="translate(0,0)"/>
<path d="" fill="#278954" transform="translate(0,0)"/>
<path d="" fill="#248752" transform="translate(0,0)"/>
<path d="" fill="#3F8962" transform="translate(0,0)"/>
<path d="" fill="#218852" transform="translate(0,0)"/>
<path d="" fill="#248854" transform="translate(0,0)"/>
<path d="" fill="#3A895E" transform="translate(0,0)"/>
<path d="" fill="#34875C" transform="translate(0,0)"/>
<path d="" fill="#288C57" transform="translate(0,0)"/>
<path d="" fill="#34895B" transform="translate(0,0)"/>
<path d="" fill="#3A885E" transform="translate(0,0)"/>
<path d="" fill="#33995F" transform="translate(0,0)"/>
<path d="" fill="#258954" transform="translate(0,0)"/>
<path d="" fill="#258950" transform="translate(0,0)"/>
<path d="" fill="#238851" transform="translate(0,0)"/>
<path d="" fill="#2F8A58" transform="translate(0,0)"/>
<path d="" fill="#248851" transform="translate(0,0)"/>
<path d="" fill="#369E64" transform="translate(0,0)"/>
<path d="" fill="#248952" transform="translate(0,0)"/>
<path d="" fill="#298B56" transform="translate(0,0)"/>
<path d="" fill="#23884D" transform="translate(0,0)"/>
<path d="" fill="#298A54" transform="translate(0,0)"/>
<path d="" fill="#49A973" transform="translate(0,0)"/>
<path d="" fill="#268B56" transform="translate(0,0)"/>
<path d="" fill="#288B55" transform="translate(0,0)"/>
<path d="" fill="#58B480" transform="translate(0,0)"/>
<path d="" fill="#78C499" transform="translate(0,0)"/>
<path d="" fill="#238A4F" transform="translate(0,0)"/>
<path d="" fill="#248C53" transform="translate(0,0)"/>
<path d="" fill="#258C55" transform="translate(0,0)"/>
<path d="" fill="#248F56" transform="translate(0,0)"/>
<path d="" fill="#278951" transform="translate(0,0)"/>
<path d="" fill="#269356" transform="translate(0,0)"/>
<path d="" fill="#219052" transform="translate(0,0)"/>
<path d="" fill="#239357" transform="translate(0,0)"/>
<path d="" fill="#229355" transform="translate(0,0)"/>
<path d="" fill="#229256" transform="translate(0,0)"/>
<path d="" fill="#288F57" transform="translate(0,0)"/>
<path d="" fill="#259659" transform="translate(0,0)"/>
<path d="" fill="#259155" transform="translate(0,0)"/>
<path d="" fill="#27A25F" transform="translate(0,0)"/>
<path d="" fill="#2DA263" transform="translate(0,0)"/>
<path d="" fill="#24AA62" transform="translate(0,0)"/>
<path d="" fill="#2C9E61" transform="translate(0,0)"/>
<path d="" fill="#24AB63" transform="translate(0,0)"/>
<path d="" fill="#2AA666" transform="translate(0,0)"/>
<path d="" fill="#29AC65" transform="translate(0,0)"/>
<path d="" fill="#2AA865" transform="translate(0,0)"/>
<path d="" fill="#26B066" transform="translate(0,0)"/>
<path d="" fill="#30A267" transform="translate(0,0)"/>
<path d="" fill="#24AC66" transform="translate(0,0)"/>
<path d="" fill="#22AE63" transform="translate(0,0)"/>
<path d="" fill="#349B67" transform="translate(0,0)"/>
<path d="" fill="#24AE65" transform="translate(0,0)"/>
<path d="" fill="#399567" transform="translate(0,0)"/>
<path d="" fill="#26A965" transform="translate(0,0)"/>
<path d="" fill="#27A864" transform="translate(0,0)"/>
<path d="" fill="#389666" transform="translate(0,0)"/>
<path d="" fill="#2AAD68" transform="translate(0,0)"/>
<path d="" fill="#25AF68" transform="translate(0,0)"/>
<path d="" fill="#3B8A63" transform="translate(0,0)"/>
<path d="" fill="#2AAC68" transform="translate(0,0)"/>
<path d="" fill="#3D9166" transform="translate(0,0)"/>
</svg>
